<?xml version="1.0" standalone="no"?>
<!DOCTYPE svg PUBLIC "-//W3C//DTD SVG 20010904//EN"
 "http://www.w3.org/TR/2001/REC-SVG-20010904/DTD/svg10.dtd">
<svg version="1.0" xmlns="http://www.w3.org/2000/svg"
 width="700.000000pt" height="700.000000pt" viewBox="0 0 700.000000 700.000000"
 preserveAspectRatio="xMidYMid meet">
<metadata>
Created by potrace 1.11, written by Peter Selinger 2001-2013
</metadata>
<g transform="translate(0.000000,700.000000) scale(0.100000,-0.100000)"
fill="#000000" stroke="none">
<path d="M3305 6480 c-391 -79 -689 -361 -792 -749 -23 -83 -26 -116 -26 -251
0 -155 7 -202 49 -330 46 -137 138 -283 248 -393 225 -224 550 -330 867 -282
428 65 751 373 850 810 17 77 19 279 2 370 -54 309 -247 575 -526 725 -76 41
-224 94 -292 105 -101 16 -290 13 -380 -5z"/>
<path d="M2483 4404 c-273 -39 -472 -189 -562 -424 -36 -93 -48 -149 -55 -272
l-3 -48 84 0 c45 0 83 3 84 8 0 4 2 32 4 63 12 181 105 346 242 425 63 38 165
73 232 82 75 9 1934 8 1991 -1 282 -47 456 -245 465 -527 l1 -45 84 0 c96 0
89 -12 77 115 -3 41 -14 100 -24 130 -9 30 -17 57 -18 60 -8 28 -51 110 -77
148 -72 105 -207 206 -328 247 -59 20 -58 20 -109 30 -19 3 -39 9 -45 13 -20
12 -1954 8 -2043 -4z"/>
<path d="M1910 3559 c-58 -4 -124 -13 -146 -22 -179 -67 -294 -259 -257 -431
17 -79 61 -294 67 -326 2 -14 16 -81 30 -150 15 -69 28 -134 30 -145 3 -11 21
-99 40 -195 20 -96 38 -184 40 -195 3 -11 11 -54 20 -95 8 -41 18 -91 21 -110
3 -19 8 -51 12 -70 18 -108 117 -230 230 -283 l68 -32 1430 0 1430 0 55 22
c148 61 239 184 265 358 3 22 21 114 40 205 19 91 37 176 39 190 2 14 14 68
25 120 11 52 22 106 25 120 4 24 21 103 82 393 14 67 28 136 31 152 2 17 8 46
12 65 10 44 -10 145 -41 208 -48 102 -183 203 -289 217 -59 8 -3126 12 -3259
4z"/>
</g>
</svg>
